<?xml version="1.0" encoding="UTF-8" standalone="no"?>
<!DOCTYPE svg PUBLIC "-//W3C//DTD SVG 1.1//EN"
 "http://www.w3.org/Graphics/SVG/1.1/DTD/svg11.dtd">
<!-- Generated by graphviz version 3.0.0 (20220226.1711)
 -->
<!-- Title: G Pages: 1 -->
<svg width="460pt" height="147pt"
 viewBox="0.00 0.00 460.20 147.20" xmlns="http://www.w3.org/2000/svg" xmlns:xlink="http://www.w3.org/1999/xlink">
<g id="graph0" class="graph" transform="scale(1 1) rotate(0) translate(21.6 125.6)">
<title>G</title>
<polygon fill="#111111" stroke="transparent" points="-21.6,21.6 -21.6,-125.6 438.6,-125.6 438.6,21.6 -21.6,21.6"/>
<!-- Config.ts -->
<g id="node1" class="node">
<title>Config.ts</title>
<path fill="none" stroke="#cfffac" d="M197.33,-104C197.33,-104 138.67,-104 138.67,-104 134.83,-104 131,-100.17 131,-96.33 131,-96.33 131,-88.67 131,-88.67 131,-84.83 134.83,-81 138.67,-81 138.67,-81 197.33,-81 197.33,-81 201.17,-81 205,-84.83 205,-88.67 205,-88.67 205,-96.33 205,-96.33 205,-100.17 201.17,-104 197.33,-104"/>
<text text-anchor="middle" x="168" y="-88.8" font-family="Arial" font-size="14.00" fill="#cfffac">Config.ts</text>
</g>
<!-- EmbedTemplates.ts -->
<g id="node2" class="node">
<title>EmbedTemplates.ts</title>
<path fill="none" stroke="#cfffac" d="M409.33,-64C409.33,-64 278.67,-64 278.67,-64 274.83,-64 271,-60.17 271,-56.33 271,-56.33 271,-48.67 271,-48.67 271,-44.83 274.83,-41 278.67,-41 278.67,-41 409.33,-41 409.33,-41 413.17,-41 417,-44.83 417,-48.67 417,-48.67 417,-56.33 417,-56.33 417,-60.17 413.17,-64 409.33,-64"/>
<text text-anchor="middle" x="344" y="-48.8" font-family="Arial" font-size="14.00" fill="#cfffac">EmbedTemplates.ts</text>
</g>
<!-- QueueRenderer.ts -->
<g id="node3" class="node">
<title>QueueRenderer.ts</title>
<path fill="none" stroke="#c6c5fe" d="M227.33,-63C227.33,-63 108.67,-63 108.67,-63 104.83,-63 101,-59.17 101,-55.33 101,-55.33 101,-47.67 101,-47.67 101,-43.83 104.83,-40 108.67,-40 108.67,-40 227.33,-40 227.33,-40 231.17,-40 235,-43.83 235,-47.67 235,-47.67 235,-55.33 235,-55.33 235,-59.17 231.17,-63 227.33,-63"/>
<text text-anchor="middle" x="168" y="-47.8" font-family="Arial" font-size="14.00" fill="#c6c5fe">QueueRenderer.ts</text>
</g>
<!-- QueueRenderer.ts&#45;&gt;EmbedTemplates.ts -->
<g id="edge1" class="edge">
<title>QueueRenderer.ts&#45;&gt;EmbedTemplates.ts</title>
<path fill="none" stroke="#757575" d="M235.28,-51.88C243.63,-51.93 252.25,-51.98 260.81,-52.03"/>
<polygon fill="#757575" stroke="#757575" points="260.8,-55.53 270.82,-52.09 260.84,-48.53 260.8,-55.53"/>
</g>
<!-- interfaces.ts -->
<g id="node4" class="node">
<title>interfaces.ts</title>
<path fill="none" stroke="#cfffac" d="M383.33,-23C383.33,-23 304.67,-23 304.67,-23 300.83,-23 297,-19.17 297,-15.33 297,-15.33 297,-7.67 297,-7.67 297,-3.83 300.83,0 304.67,0 304.67,0 383.33,0 383.33,0 387.17,0 391,-3.83 391,-7.67 391,-7.67 391,-15.33 391,-15.33 391,-19.17 387.17,-23 383.33,-23"/>
<text text-anchor="middle" x="344" y="-7.8" font-family="Arial" font-size="14.00" fill="#cfffac">interfaces.ts</text>
</g>
<!-- QueueRenderer.ts&#45;&gt;interfaces.ts -->
<g id="edge2" class="edge">
<title>QueueRenderer.ts&#45;&gt;interfaces.ts</title>
<path fill="none" stroke="#757575" d="M219.33,-39.93C240.57,-35.05 265.37,-29.35 287.17,-24.33"/>
<polygon fill="#757575" stroke="#757575" points="287.99,-27.74 296.95,-22.09 286.42,-20.92 287.99,-27.74"/>
</g>
<!-- index.ts -->
<g id="node5" class="node">
<title>index.ts</title>
<path fill="none" stroke="#c6c5fe" d="M57.33,-63C57.33,-63 7.67,-63 7.67,-63 3.83,-63 0,-59.17 0,-55.33 0,-55.33 0,-47.67 0,-47.67 0,-43.83 3.83,-40 7.67,-40 7.67,-40 57.33,-40 57.33,-40 61.17,-40 65,-43.83 65,-47.67 65,-47.67 65,-55.33 65,-55.33 65,-59.17 61.17,-63 57.33,-63"/>
<text text-anchor="middle" x="32.5" y="-47.8" font-family="Arial" font-size="14.00" fill="#c6c5fe">index.ts</text>
</g>
<!-- index.ts&#45;&gt;Config.ts -->
<g id="edge3" class="edge">
<title>index.ts&#45;&gt;Config.ts</title>
<path fill="none" stroke="#757575" d="M65.08,-61.38C76.4,-64.91 89.27,-68.9 101,-72.5 107.46,-74.48 114.28,-76.56 120.98,-78.6"/>
<polygon fill="#757575" stroke="#757575" points="120.09,-81.99 130.67,-81.54 122.12,-75.29 120.09,-81.99"/>
</g>
<!-- index.ts&#45;&gt;QueueRenderer.ts -->
<g id="edge4" class="edge">
<title>index.ts&#45;&gt;QueueRenderer.ts</title>
<path fill="none" stroke="#757575" d="M65.14,-51.5C72.98,-51.5 81.73,-51.5 90.71,-51.5"/>
<polygon fill="#757575" stroke="#757575" points="90.92,-55 100.92,-51.5 90.92,-48 90.92,-55"/>
</g>
<!-- index.ts&#45;&gt;interfaces.ts -->
<g id="edge5" class="edge">
<title>index.ts&#45;&gt;interfaces.ts</title>
<path fill="none" stroke="#757575" d="M65.06,-40.08C76.27,-36.45 89.07,-32.79 101,-30.5 163.78,-18.43 237.14,-13.99 286.49,-12.38"/>
<polygon fill="#757575" stroke="#757575" points="286.76,-15.87 296.65,-12.08 286.55,-8.88 286.76,-15.87"/>
</g>
</g>
</svg>
